<svg width="32" height="32" viewBox="0 0 32 32" fill="none" xmlns="http://www.w3.org/2000/svg">
  <!-- Shield background -->
  <path d="M16 2L28 8V16C28 22 22.5 27 16 30C9.5 27 4 22 4 16V8L16 2Z" fill="#3B82F6" stroke="#1E40AF" stroke-width="1"/>
  
  <!-- Shield highlight -->
  <path d="M16 2L28 8V16C28 22 22.5 27 16 30C9.5 27 4 22 4 16V8L16 2Z" fill="url(#shieldGradient)" opacity="0.8"/>
  
  <!-- Brain icon -->
  <path d="M12 12C12 10.9 12.9 10 14 10H18C19.1 10 20 10.9 20 12V18C20 19.1 19.1 20 18 20H14C12.9 20 12 19.1 12 18V12Z" fill="#10B981"/>
  <path d="M14 12H18V18H14V12Z" fill="#ECFDF5"/>
  
  <!-- Brain details -->
  <circle cx="15" cy="14" r="1" fill="#059669"/>
  <circle cx="17" cy="14" r="1" fill="#059669"/>
  <circle cx="16" cy="16" r="1" fill="#059669"/>
  
  <!-- Circuit lines -->
  <path d="M8 8L12 8" stroke="#F59E0B" stroke-width="1.5" stroke-linecap="round"/>
  <path d="M20 8L24 8" stroke="#F59E0B" stroke-width="1.5" stroke-linecap="round"/>
  <path d="M8 24L12 24" stroke="#F59E0B" stroke-width="1.5" stroke-linecap="round"/>
  <path d="M20 24L24 24" stroke="#F59E0B" stroke-width="1.5" stroke-linecap="round"/>
  
  <!-- Circuit nodes -->
  <circle cx="8" cy="8" r="1.5" fill="#F59E0B"/>
  <circle cx="24" cy="8" r="1.5" fill="#F59E0B"/>
  <circle cx="8" cy="24" r="1.5" fill="#F59E0B"/>
  <circle cx="24" cy="24" r="1.5" fill="#F59E0B"/>
  
  <!-- Checkmark for assessment -->
  <path d="M13 17L15 19L19 15" stroke="#10B981" stroke-width="2" stroke-linecap="round" stroke-linejoin="round"/>
  
  <!-- Gradients -->
  <defs>
    <linearGradient id="shieldGradient" x1="16" y1="2" x2="16" y2="30" gradientUnits="userSpaceOnUse">
      <stop stop-color="#60A5FA"/>
      <stop offset="1" stop-color="#3B82F6"/>
    </linearGradient>
  </defs>
</svg>
