<svg width="800" height="400" viewBox="0 0 800 400" xmlns="http://www.w3.org/2000/svg">
  <defs>
    <linearGradient id="energyGradient" x1="0%" y1="0%" x2="100%" y2="100%">
      <stop offset="0%" style="stop-color:#F59E0B;stop-opacity:1" />
      <stop offset="100%" style="stop-color:#D97706;stop-opacity:1" />
    </linearGradient>
    <linearGradient id="powerGradient" x1="0%" y1="0%" x2="100%" y2="0%">
      <stop offset="0%" style="stop-color:#10B981;stop-opacity:1" />
      <stop offset="100%" style="stop-color:#059669;stop-opacity:1" />
    </linearGradient>
  </defs>
  
  <!-- Background -->
  <rect width="800" height="400" fill="url(#energyGradient)" opacity="0.1"/>
  
  <!-- Power Plant -->
  <g transform="translate(200, 200)">
    <!-- Main Building -->
    <rect x="-40" y="40" width="80" height="100" fill="#6B7280" opacity="0.8"/>
    <rect x="-35" y="45" width="15" height="15" fill="#9CA3AF"/>
    <rect x="-15" y="45" width="15" height="15" fill="#9CA3AF"/>
    <rect x="5" y="45" width="15" height="15" fill="#9CA3AF"/>
    <rect x="25" y="45" width="15" height="15" fill="#9CA3AF"/>
    
    <rect x="-35" y="65" width="15" height="15" fill="#9CA3AF"/>
    <rect x="-15" y="65" width="15" height="15" fill="#9CA3AF"/>
    <rect x="5" y="65" width="15" height="15" fill="#9CA3AF"/>
    <rect x="25" y="65" width="15" height="15" fill="#9CA3AF"/>
    
    <rect x="-35" y="85" width="15" height="15" fill="#9CA3AF"/>
    <rect x="-15" y="85" width="15" height="15" fill="#9CA3AF"/>
    <rect x="5" y="85" width="15" height="15" fill="#9CA3AF"/>
    <rect x="25" y="85" width="15" height="15" fill="#9CA3AF"/>
    
    <rect x="-35" y="105" width="15" height="15" fill="#9CA3AF"/>
    <rect x="-15" y="105" width="15" height="15" fill="#9CA3AF"/>
    <rect x="5" y="105" width="15" height="15" fill="#9CA3AF"/>
    <rect x="25" y="105" width="15" height="15" fill="#9CA3AF"/>
    
    <!-- Chimney -->
    <rect x="30" y="20" width="20" height="60" fill="#374151" opacity="0.9"/>
    <rect x="35" y="15" width="10" height="10" fill="#1F2937" rx="5"/>
    
    <!-- Smoke -->
    <path d="M40,15 Q45,10 50,15 Q55,20 60,15 Q65,10 70,15" 
          stroke="#9CA3AF" stroke-width="3" fill="none" opacity="0.6"/>
    
    <!-- Solar Panels -->
    <rect x="-60" y="30" width="15" height="20" fill="#F59E0B" opacity="0.8"/>
    <rect x="-60" y="55" width="15" height="20" fill="#F59E0B" opacity="0.8"/>
    <rect x="-60" y="80" width="15" height="20" fill="#F59E0B" opacity="0.8"/>
    <rect x="-60" y="105" width="15" height="20" fill="#F59E0B" opacity="0.8"/>
    
    <!-- Wind Turbine -->
    <rect x="50" y="80" width="8" height="60" fill="#6B7280" opacity="0.8"/>
    <circle cx="54" cy="80" r="25" fill="none" stroke="#10B981" stroke-width="3" opacity="0.6"/>
    <path d="M29,80 L79,80 M54,55 L54,105" stroke="#10B981" stroke-width="2" opacity="0.5"/>
  </g>
  
  <!-- AI Monitoring Network -->
  <g transform="translate(600, 200)">
    <circle cx="0" cy="0" r="40" fill="#F59E0B" opacity="0.8"/>
    <circle cx="55" cy="-40" r="25" fill="#FBBF24" opacity="0.7"/>
    <circle cx="70" y="20" r="20" fill="#FCD34D" opacity="0.6"/>
    <circle cx="-35" cy="50" r="30" fill="#FDE68A" opacity="0.5"/>
    <circle cx="-50" cy="-30" r="35" fill="#FEF3C7" opacity="0.6"/>
    
    <!-- Connection Lines -->
    <line x1="0" y1="0" x2="55" y2="-40" stroke="#F59E0B" stroke-width="2" opacity="0.6"/>
    <line x1="0" y1="0" x2="70" y2="20" stroke="#F59E0B" stroke-width="2" opacity="0.6"/>
    <line x1="0" y1="0" x2="-35" y2="50" stroke="#F59E0B" stroke-width="2" opacity="0.6"/>
    <line x1="0" y1="0" x2="-50" y2="-30" stroke="#F59E0B" stroke-width="2" opacity="0.6"/>
  </g>
  
  <!-- Power Grid -->
  <g transform="translate(100, 300)">
    <line x1="0" y1="0" x2="400" y2="0" stroke="#10B981" stroke-width="3" opacity="0.8"/>
    <line x1="0" y1="0" x2="0" y2="-60" stroke="#10B981" stroke-width="2" opacity="0.6"/>
    <line x1="100" y1="0" x2="100" y2="-40" stroke="#10B981" stroke-width="2" opacity="0.6"/>
    <line x1="200" y1="0" x2="200" y2="-50" stroke="#10B981" stroke-width="2" opacity="0.6"/>
    <line x1="300" y1="0" x2="300" y2="-45" stroke="#10B981" stroke-width="2" opacity="0.6"/>
    <line x1="400" y1="0" x2="400" y2="-55" stroke="#10B981" stroke-width="2" opacity="0.6"/>
    
    <!-- Power Stations -->
    <circle cx="0" cy="-60" r="8" fill="#10B981" opacity="0.8"/>
    <circle cx="100" cy="-40" r="8" fill="#10B981" opacity="0.8"/>
    <circle cx="200" cy="-50" r="8" fill="#10B981" opacity="0.8"/>
    <circle cx="300" cy="-45" r="8" fill="#10B981" opacity="0.8"/>
    <circle cx="400" cy="-55" r="8" fill="#10B981" opacity="0.8"/>
  </g>
  
  <!-- Energy Icons -->
  <g transform="translate(150, 80)">
    <!-- Lightning Bolt -->
    <path d="M-15,25 L-5,15 L5,25 L-5,35 L-15,25" 
          fill="#F59E0B" opacity="0.8"/>
    <path d="M-5,15 L5,25 L-5,35" 
          fill="#FCD34D" opacity="0.6"/>
  </g>
  
  <!-- Smart Meter -->
  <g transform="translate(500, 100)">
    <rect x="-25" y="-20" width="50" height="40" fill="#F3F4F6" opacity="0.9" rx="5"/>
    <rect x="-20" y="-15" width="40" height="30" fill="#1F2937" opacity="0.8" rx="3"/>
    <rect x="-15" y="-10" width="30" height="8" fill="#10B981" opacity="0.7"/>
    <rect x="-15" y="0" width="20" height="4" fill="#F59E0B" opacity="0.8"/>
    <rect x="-15" y="8" width="25" height="4" fill="#F59E0B" opacity="0.8"/>
    <rect x="-15" y="16" width="15" height="4" fill="#F59E0B" opacity="0.8"/>
  </g>
  
  <!-- Safety Alert -->
  <g transform="translate(700, 100)">
    <path d="M0,-40 L20,-20 L20,20 L0,40 L-20,20 L-20,-20 Z" 
          fill="#F59E0B" opacity="0.7"/>
    <path d="M0,-30 L15,-15 L15,15 L0,30 L-15,15 L-15,-15 Z" 
          fill="#FBBF24" opacity="0.8"/>
    <path d="M0,-20 L10,-10 L10,10 L0,20 L-10,10 L-10,-10 Z" 
          fill="#FCD34D" opacity="0.9"/>
    <circle cx="0" cy="0" r="5" fill="#FFFFFF"/>
  </g>
  
  <!-- Data Points -->
  <g transform="translate(400, 80)">
    <circle cx="0" cy="0" r="4" fill="#F59E0B"/>
    <circle cx="20" cy="15" r="4" fill="#FBBF24"/>
    <circle cx="40" cy="5" r="4" fill="#FCD34D"/>
    <circle cx="60" cy="25" r="4" fill="#FDE68A"/>
    <circle cx="80" cy="10" r="4" fill="#FEF3C7"/>
    <circle cx="100" cy="20" r="4" fill="#FFFBEB"/>
  </g>
</svg>
