<svg width="800" height="400" viewBox="0 0 800 400" xmlns="http://www.w3.org/2000/svg">
  <defs>
    <linearGradient id="enterpriseGradient" x1="0%" y1="0%" x2="100%" y2="100%">
      <stop offset="0%" style="stop-color:#7C3AED;stop-opacity:1" />
      <stop offset="100%" style="stop-color:#5B21B6;stop-opacity:1" />
    </linearGradient>
    <linearGradient id="corporateGradient" x1="0%" y1="0%" x2="100%" y2="0%">
      <stop offset="0%" style="stop-color:#6B7280;stop-opacity:1" />
      <stop offset="100%" style="stop-color:#374151;stop-opacity:1" />
    </linearGradient>
  </defs>
  
  <!-- Background -->
  <rect width="800" height="400" fill="url(#enterpriseGradient)" opacity="0.1"/>
  
  <!-- Corporate Building -->
  <g transform="translate(200, 200)">
    <rect x="-40" y="40" width="80" height="120" fill="url(#corporateGradient)" opacity="0.8"/>
    <rect x="-35" y="45" width="15" height="15" fill="#9CA3AF"/>
    <rect x="-15" y="45" width="15" height="15" fill="#9CA3AF"/>
    <rect x="5" y="45" width="15" height="15" fill="#9CA3AF"/>
    <rect x="25" y="45" width="15" height="15" fill="#9CA3AF"/>
    
    <rect x="-35" y="65" width="15" height="15" fill="#9CA3AF"/>
    <rect x="-15" y="65" width="15" height="15" fill="#9CA3AF"/>
    <rect x="5" y="65" width="15" height="15" fill="#9CA3AF"/>
    <rect x="25" y="65" width="15" height="15" fill="#9CA3AF"/>
    
    <rect x="-35" y="85" width="15" height="15" fill="#9CA3AF"/>
    <rect x="-15" y="85" width="15" height="15" fill="#9CA3AF"/>
    <rect x="5" y="85" width="15" height="15" fill="#9CA3AF"/>
    <rect x="25" y="85" width="15" height="15" fill="#9CA3AF"/>
    
    <rect x="-35" y="105" width="15" height="15" fill="#9CA3AF"/>
    <rect x="-15" y="105" width="15" height="15" fill="#9CA3AF"/>
    <rect x="5" y="105" width="15" height="15" fill="#9CA3AF"/>
    <rect x="25" y="105" width="15" height="15" fill="#9CA3AF"/>
    
    <rect x="-35" y="125" width="15" height="15" fill="#9CA3AF"/>
    <rect x="-15" y="125" width="15" height="15" fill="#9CA3AF"/>
    <rect x="5" y="125" width="15" height="15" fill="#9CA3AF"/>
    <rect x="25" y="125" width="15" height="15" fill="#9CA3AF"/>
    
    <rect x="-45" y="35" width="90" height="10" fill="#374151" rx="5"/>
    <rect x="-50" y="30" width="100" height="10" fill="#1F2937" rx="5"/>
  </g>
  
  <!-- AI Transformation Network -->
  <g transform="translate(600, 200)">
    <circle cx="0" cy="0" r="40" fill="#7C3AED" opacity="0.8"/>
    <circle cx="60" cy="-35" r="25" fill="#8B5CF6" opacity="0.7"/>
    <circle cx="75" cy="25" r="20" fill="#A78BFA" opacity="0.6"/>
    <circle cx="-40" cy="45" r="30" fill="#C4B5FD" opacity="0.5"/>
    <circle cx="-55" cy="-25" r="35" fill="#DDD6FE" opacity="0.6"/>
    
    <!-- Connection Lines -->
    <line x1="0" y1="0" x2="60" y2="-35" stroke="#7C3AED" stroke-width="2" opacity="0.6"/>
    <line x1="0" y1="0" x2="75" y2="25" stroke="#7C3AED" stroke-width="2" opacity="0.6"/>
    <line x1="0" y1="0" x2="-40" y2="45" stroke="#7C3AED" stroke-width="2" opacity="0.6"/>
    <line x1="0" y1="0" x2="-55" y2="-25" stroke="#7C3AED" stroke-width="2" opacity="0.6"/>
  </g>
  
  <!-- Growth Chart -->
  <g transform="translate(100, 300)">
    <path d="M0,100 L40,80 L80,60 L120,40 L160,30 L200,20 L240,15 L280,10 L320,5 L360,0" 
          stroke="#7C3AED" stroke-width="3" fill="none" opacity="0.8"/>
    <path d="M0,100 L40,80 L80,60 L120,40 L160,30 L200,20 L240,15 L280,10 L320,5 L360,0" 
          fill="url(#enterpriseGradient)" opacity="0.2"/>
  </g>
  
  <!-- Business Icons -->
  <g transform="translate(150, 80)">
    <!-- Briefcase -->
    <rect x="-25" y="10" width="50" height="35" fill="#6B7280" opacity="0.8" rx="5"/>
    <rect x="-20" y="5" width="40" height="10" fill="#374151" rx="5"/>
    <rect x="-15" y="15" width="8" height="8" fill="#9CA3AF"/>
    <rect x="7" y="15" width="8" height="8" fill="#9CA3AF"/>
    <rect x="-15" y="28" width="8" height="8" fill="#9CA3AF"/>
    <rect x="7" y="28" width="8" height="8" fill="#9CA3AF"/>
  </g>
  
  <!-- Digital Transformation -->
  <g transform="translate(500, 100)">
    <circle cx="0" cy="0" r="30" fill="none" stroke="#7C3AED" stroke-width="3" opacity="0.7"/>
    <circle cx="0" cy="0" r="20" fill="none" stroke="#8B5CF6" stroke-width="2" opacity="0.6"/>
    <circle cx="0" cy="0" r="10" fill="#A78BFA" opacity="0.5"/>
    <path d="M-20,-20 L20,20 M-20,20 L20,-20" stroke="#7C3AED" stroke-width="2" opacity="0.8"/>
  </g>
  
  <!-- Strategy Framework -->
  <g transform="translate(700, 100)">
    <rect x="-30" y="-20" width="60" height="40" fill="none" stroke="#7C3AED" stroke-width="2" opacity="0.7"/>
    <circle cx="0" cy="0" r="15" fill="#8B5CF6" opacity="0.3"/>
    <path d="M-15,-15 L15,15 M-15,15 L15,-15" stroke="#7C3AED" stroke-width="1" opacity="0.6"/>
    <circle cx="-15" cy="-15" r="3" fill="#7C3AED"/>
    <circle cx="15" cy="15" r="3" fill="#7C3AED"/>
    <circle cx="-15" cy="15" r="3" fill="#7C3AED"/>
    <circle cx="15" cy="-15" r="3" fill="#7C3AED"/>
  </g>
  
  <!-- Data Analytics -->
  <g transform="translate(400, 80)">
    <rect x="0" y="0" width="8" height="20" fill="#7C3AED" opacity="0.8"/>
    <rect x="12" y="5" width="8" height="15" fill="#8B5CF6" opacity="0.7"/>
    <rect x="24" y="10" width="8" height="10" fill="#A78BFA" opacity="0.6"/>
    <rect x="36" y="15" width="8" height="5" fill="#C4B5FD" opacity="0.5"/>
    <rect x="48" y="8" width="8" height="12" fill="#DDD6FE" opacity="0.6"/>
  </g>
</svg>
