<svg width="800" height="400" viewBox="0 0 800 400" xmlns="http://www.w3.org/2000/svg">
  <defs>
    <linearGradient id="educationGradient" x1="0%" y1="0%" x2="100%" y2="100%">
      <stop offset="0%" style="stop-color:#8B5CF6;stop-opacity:1" />
      <stop offset="100%" style="stop-color:#6D28D9;stop-opacity:1" />
    </linearGradient>
    <linearGradient id="academicGradient" x1="0%" y1="0%" x2="100%" y2="0%">
      <stop offset="0%" style="stop-color:#EC4899;stop-opacity:1" />
      <stop offset="100%" style="stop-color:#BE185D;stop-opacity:1" />
    </linearGradient>
  </defs>
  
  <!-- Background -->
  <rect width="800" height="400" fill="url(#educationGradient)" opacity="0.1"/>
  
  <!-- University Building -->
  <g transform="translate(200, 200)">
    <!-- Main Building -->
    <rect x="-50" y="40" width="100" height="120" fill="url(#academicGradient)" opacity="0.8"/>
    <rect x="-45" y="45" width="20" height="20" fill="#F3E8FF"/>
    <rect x="-20" y="45" width="20" height="20" fill="#F3E8FF"/>
    <rect x="5" y="45" width="20" height="20" fill="#F3E8FF"/>
    <rect x="30" y="45" width="20" height="20" fill="#F3E8FF"/>
    
    <rect x="-45" y="70" width="20" height="20" fill="#F3E8FF"/>
    <rect x="-20" y="70" width="20" height="20" fill="#F3E8FF"/>
    <rect x="5" y="70" width="20" height="20" fill="#F3E8FF"/>
    <rect x="30" y="70" width="20" height="20" fill="#F3E8FF"/>
    
    <rect x="-45" y="95" width="20" height="20" fill="#F3E8FF"/>
    <rect x="-20" y="95" width="20" height="20" fill="#F3E8FF"/>
    <rect x="5" y="95" width="20" height="20" fill="#F3E8FF"/>
    <rect x="30" y="95" width="20" height="20" fill="#F3E8FF"/>
    
    <rect x="-45" y="120" width="20" height="20" fill="#F3E8FF"/>
    <rect x="-20" y="120" width="20" height="20" fill="#F3E8FF"/>
    <rect x="5" y="120" width="20" height="20" fill="#F3E8FF"/>
    <rect x="30" y="120" width="20" height="20" fill="#F3E8FF"/>
    
    <rect x="-45" y="145" width="20" height="20" fill="#F3E8FF"/>
    <rect x="-20" y="145" width="20" height="20" fill="#F3E8FF"/>
    <rect x="5" y="145" width="20" height="20" fill="#F3E8FF"/>
    <rect x="30" y="145" width="20" height="20" fill="#F3E8FF"/>
    
    <!-- Bell Tower -->
    <rect x="35" y="20" width="20" height="60" fill="#6D28D9" opacity="0.9"/>
    <rect x="40" y="15" width="10" height="10" fill="#4C1D95" rx="5"/>
    <circle cx="45" cy="20" r="3" fill="#F3E8FF"/>
    
    <!-- Columns -->
    <rect x="-60" y="30" width="8" height="130" fill="#8B5CF6" opacity="0.7"/>
    <rect x="52" y="30" width="8" height="130" fill="#8B5CF6" opacity="0.7"/>
    
    <!-- Steps -->
    <rect x="-70" y="160" width="140" height="8" fill="#6D28D9" opacity="0.8"/>
    <rect x="-75" y="168" width="150" height="8" fill="#4C1D95" opacity="0.9"/>
  </g>
  
  <!-- AI Learning Network -->
  <g transform="translate(600, 200)">
    <circle cx="0" cy="0" r="40" fill="#8B5CF6" opacity="0.8"/>
    <circle cx="55" cy="-40" r="25" fill="#A78BFA" opacity="0.7"/>
    <circle cx="70" y="20" r="20" fill="#C4B5FD" opacity="0.6"/>
    <circle cx="-35" cy="50" r="30" fill="#DDD6FE" opacity="0.5"/>
    <circle cx="-50" cy="-30" r="35" fill="#EDE9FE" opacity="0.6"/>
    
    <!-- Connection Lines -->
    <line x1="0" y1="0" x2="55" y2="-40" stroke="#8B5CF6" stroke-width="2" opacity="0.6"/>
    <line x1="0" y1="0" x2="70" y2="20" stroke="#8B5CF6" stroke-width="2" opacity="0.6"/>
    <line x1="0" y1="0" x2="-35" y2="50" stroke="#8B5CF6" stroke-width="2" opacity="0.6"/>
    <line x1="0" y1="0" x2="-50" y2="-30" stroke="#8B5CF6" stroke-width="2" opacity="0.6"/>
  </g>
  
  <!-- Research Growth -->
  <g transform="translate(100, 300)">
    <path d="M0,100 L40,80 L80,60 L120,40 L160,30 L200,20 L240,15 L280,10 L320,5 L360,0" 
          stroke="#8B5CF6" stroke-width="3" fill="none" opacity="0.8"/>
    <path d="M0,100 L40,80 L80,60 L120,40 L160,30 L200,20 L240,15 L280,10 L320,5 L360,0" 
          fill="url(#educationGradient)" opacity="0.2"/>
  </g>
  
  <!-- Academic Icons -->
  <g transform="translate(150, 80)">
    <!-- Graduation Cap -->
    <rect x="-20" y="15" width="40" height="8" fill="#8B5CF6" opacity="0.8"/>
    <rect x="-25" y="10" width="50" height="8" fill="#6D28D9" opacity="0.9"/>
    <rect x="-15" y="5" width="30" height="8" fill="#4C1D95" opacity="0.7"/>
    <rect x="-5" y="0" width="10" height="8" fill="#8B5CF6" opacity="0.6"/>
    <rect x="15" y="0" width="10" height="8" fill="#8B5CF6" opacity="0.6"/>
    <rect x="35" y="0" width="10" height="8" fill="#8B5CF6" opacity="0.6"/>
  </g>
  
  <!-- Research Document -->
  <g transform="translate(500, 100)">
    <rect x="-30" y="-25" width="60" height="50" fill="#F3F4F6" opacity="0.9" rx="5"/>
    <rect x="-25" y="-20" width="50" height="8" fill="#8B5CF6" opacity="0.7"/>
    <rect x="-25" y="-10" width="40" height="4" fill="#6B7280" opacity="0.6"/>
    <rect x="-25" y="-5" width="45" height="4" fill="#6B7280" opacity="0.6"/>
    <rect x="-25" y="0" width="35" height="4" fill="#6B7280" opacity="0.6"/>
    <rect x="-25" y="5" width="50" height="4" fill="#6B7280" opacity="0.6"/>
    <rect x="-25" y="10" width="30" height="4" fill="#6B7280" opacity="0.6"/>
    <rect x="-25" y="15" width="45" height="4" fill="#6B7280" opacity="0.6"/>
    <rect x="-25" y="20" width="40" height="4" fill="#6B7280" opacity="0.6"/>
    <rect x="-25" y="25" width="35" height="4" fill="#6B7280" opacity="0.6"/>
    
    <!-- Graph -->
    <path d="M-20,15 L-15,10 L-10,12 L-5,8 L0,10 L5,6 L10,8 L15,4 L20,6" 
          stroke="#8B5CF6" stroke-width="2" fill="none" opacity="0.8"/>
  </g>
  
  <!-- Innovation Lightbulb -->
  <g transform="translate(700, 100)">
    <circle cx="0" cy="0" r="25" fill="#FCD34D" opacity="0.8"/>
    <circle cx="0" cy="0" r="20" fill="#FDE68A" opacity="0.9"/>
    <circle cx="0" cy="0" r="15" fill="#FEF3C7" opacity="1"/>
    <rect x="-3" y="15" width="6" height="15" fill="#8B5CF6" opacity="0.7"/>
    <rect x="-8" y="30" width="16" height="4" fill="#8B5CF6" opacity="0.6"/>
    
    <!-- Light Rays -->
    <path d="M-25,-25 L-35,-35 M25,-25 L35,-35 M-25,25 L-35,35 M25,25 L35,35" 
          stroke="#FCD34D" stroke-width="2" opacity="0.6"/>
  </g>
  
  <!-- Data Points -->
  <g transform="translate(400, 80)">
    <circle cx="0" cy="0" r="4" fill="#8B5CF6"/>
    <circle cx="20" cy="15" r="4" fill="#A78BFA"/>
    <circle cx="40" cy="5" r="4" fill="#C4B5FD"/>
    <circle cx="60" cy="25" r="4" fill="#DDD6FE"/>
    <circle cx="80" cy="10" r="4" fill="#EDE9FE"/>
    <circle cx="100" cy="20" r="4" fill="#F5F3FF"/>
  </g>
  
  <!-- Book Stack -->
  <g transform="translate(300, 120)">
    <rect x="-20" y="0" width="40" height="8" fill="#8B5CF6" opacity="0.8"/>
    <rect x="-18" y="8" width="36" height="8" fill="#A78BFA" opacity="0.7"/>
    <rect x="-16" y="16" width="32" height="8" fill="#C4B5FD" opacity="0.6"/>
    <rect x="-14" y="24" width="28" height="8" fill="#DDD6FE" opacity="0.5"/>
    <rect x="-12" y="32" width="24" height="8" fill="#EDE9FE" opacity="0.4"/>
  </g>
</svg>
