<svg width="800" height="400" viewBox="0 0 800 400" xmlns="http://www.w3.org/2000/svg">
  <defs>
    <linearGradient id="retailGradient" x1="0%" y1="0%" x2="100%" y2="100%">
      <stop offset="0%" style="stop-color:#EC4899;stop-opacity:1" />
      <stop offset="100%" style="stop-color:#BE185D;stop-opacity:1" />
    </linearGradient>
    <linearGradient id="storeGradient" x1="0%" y1="0%" x2="100%" y2="0%">
      <stop offset="0%" style="stop-color:#6B7280;stop-opacity:1" />
      <stop offset="100%" style="stop-color:#374151;stop-opacity:1" />
    </linearGradient>
    <linearGradient id="digitalGradient" x1="0%" y1="0%" x2="100%" y2="0%">
      <stop offset="0%" style="stop-color:#10B981;stop-opacity:1" />
      <stop offset="100%" style="stop-color:#059669;stop-opacity:1" />
    </linearGradient>
  </defs>
  
  <!-- Background -->
  <rect width="800" height="400" fill="url(#retailGradient)" opacity="0.1"/>
  
  <!-- Retail Store Front -->
  <g transform="translate(200, 200)">
    <!-- Store Building -->
    <rect x="-50" y="40" width="100" height="120" fill="url(#storeGradient)" opacity="0.8"/>
    <rect x="-45" y="45" width="20" height="20" fill="#9CA3AF"/>
    <rect x="-20" y="45" width="20" height="20" fill="#9CA3AF"/>
    <rect x="5" y="45" width="20" height="20" fill="#9CA3AF"/>
    <rect x="30" y="45" width="20" height="20" fill="#9CA3AF"/>
    
    <rect x="-45" y="70" width="20" height="20" fill="#9CA3AF"/>
    <rect x="-20" y="70" width="20" height="20" fill="#9CA3AF"/>
    <rect x="5" y="70" width="20" height="20" fill="#9CA3AF"/>
    <rect x="30" y="70" width="20" height="20" fill="#9CA3AF"/>
    
    <rect x="-45" y="95" width="20" height="20" fill="#9CA3AF"/>
    <rect x="-20" y="95" width="20" height="20" fill="#9CA3AF"/>
    <rect x="5" y="95" width="20" height="20" fill="#9CA3AF"/>
    <rect x="30" y="95" width="20" height="20" fill="#9CA3AF"/>
    
    <rect x="-45" y="120" width="20" height="20" fill="#9CA3AF"/>
    <rect x="-20" y="120" width="20" height="20" fill="#9CA3AF"/>
    <rect x="5" y="120" width="20" height="20" fill="#9CA3AF"/>
    <rect x="30" y="120" width="20" height="20" fill="#9CA3AF"/>
    
    <!-- Store Sign -->
    <rect x="-60" y="30" width="120" height="15" fill="#374151" rx="5"/>
    <rect x="-65" y="25" width="130" height="15" fill="#1F2937" rx="5"/>
    
    <!-- Store Windows -->
    <rect x="-40" y="50" width="15" height="15" fill="#E5E7EB"/>
    <rect x="-20" y="50" width="15" height="15" fill="#E5E7EB"/>
    <rect x="0" y="50" width="15" height="15" fill="#E5E7EB"/>
    <rect x="20" y="50" width="15" height="15" fill="#E5E7EB"/>
  </g>
  
  <!-- E-commerce Platform -->
  <g transform="translate(600, 200)">
    <rect x="-40" y="-30" width="80" height="60" fill="url(#digitalGradient)" opacity="0.8" rx="5"/>
    <rect x="-35" y="-25" width="70" height="50" fill="white" opacity="0.9" rx="3"/>
    
    <!-- Product Grid -->
    <rect x="-30" y="-20" width="15" height="15" fill="#EC4899" opacity="0.7"/>
    <rect x="-10" y="-20" width="15" height="15" fill="#8B5CF6" opacity="0.7"/>
    <rect x="10" y="-20" width="15" height="15" fill="#10B981" opacity="0.7"/>
    <rect x="30" y="-20" width="15" height="15" fill="#F59E0B" opacity="0.7"/>
    
    <rect x="-30" y="0" width="15" height="15" fill="#EF4444" opacity="0.7"/>
    <rect x="-10" y="0" width="15" height="15" fill="#06B6D4" opacity="0.7"/>
    <rect x="10" y="0" width="15" height="15" fill="#8B5CF6" opacity="0.7"/>
    <rect x="30" y="0" width="15" height="15" fill="#EC4899" opacity="0.7"/>
    
    <!-- Shopping Cart Icon -->
    <circle cx="0" cy="25" r="8" fill="#374151" opacity="0.8"/>
    <rect x="-3" y="20" width="6" height="8" fill="#374151" opacity="0.8"/>
  </g>
  
  <!-- Customer Analytics -->
  <g transform="translate(100, 300)">
    <path d="M0,100 L40,80 L80,60 L120,40 L160,30 L200,20 L240,15 L280,10 L320,5 L360,0" 
          stroke="#EC4899" stroke-width="3" fill="none" opacity="0.8"/>
    <path d="M0,100 L40,80 L80,60 L120,40 L160,30 L200,20 L240,15 L280,10 L320,5 L360,0" 
          fill="url(#retailGradient)" opacity="0.2"/>
  </g>
  
  <!-- Shopping Bags -->
  <g transform="translate(150, 80)">
    <!-- Shopping Bag 1 -->
    <rect x="-20" y="15" width="40" height="50" fill="#EC4899" opacity="0.8" rx="5"/>
    <rect x="-15" y="10" width="30" height="10" fill="#BE185D" rx="5"/>
    <rect x="-10" y="20" width="6" height="6" fill="#FCE7F3"/>
    <rect x="4" y="20" width="6" height="6" fill="#FCE7F3"/>
    <rect x="-10" y="30" width="6" height="6" fill="#FCE7F3"/>
    <rect x="4" y="30" width="6" height="6" fill="#FCE7F3"/>
    
    <!-- Shopping Bag 2 -->
    <rect x="15" y="20" width="25" height="40" fill="#8B5CF6" opacity="0.7" rx="3"/>
    <rect x="18" y="17" width="19" height="8" fill="#7C3AED" rx="3"/>
  </g>
  
  <!-- Digital Transformation -->
  <g transform="translate(500, 100)">
    <circle cx="0" cy="0" r="30" fill="none" stroke="#EC4899" stroke-width="3" opacity="0.7"/>
    <circle cx="0" cy="0" r="20" fill="none" stroke="#8B5CF6" stroke-width="2" opacity="0.6"/>
    <circle cx="0" cy="0" r="10" fill="#10B981" opacity="0.5"/>
    <path d="M-20,-20 L20,20 M-20,20 L20,-20" stroke="#EC4899" stroke-width="2" opacity="0.8"/>
  </g>
  
  <!-- Customer Journey -->
  <g transform="translate(700, 100)">
    <rect x="-30" y="-20" width="60" height="40" fill="none" stroke="#EC4899" stroke-width="2" opacity="0.7"/>
    <circle cx="0" cy="0" r="15" fill="#8B5CF6" opacity="0.3"/>
    <path d="M-15,-15 L15,15 M-15,15 L15,-15" stroke="#EC4899" stroke-width="1" opacity="0.6"/>
    <circle cx="-15" cy="-15" r="3" fill="#EC4899"/>
    <circle cx="15" cy="15" r="3" fill="#EC4899"/>
    <circle cx="-15" cy="15" r="3" fill="#EC4899"/>
    <circle cx="15" cy="-15" r="3" fill="#EC4899"/>
  </g>
  
  <!-- Sales Analytics -->
  <g transform="translate(400, 80)">
    <rect x="0" y="0" width="8" height="20" fill="#EC4899" opacity="0.8"/>
    <rect x="12" y="5" width="8" height="15" fill="#8B5CF6" opacity="0.7"/>
    <rect x="24" y="10" width="8" height="10" fill="#10B981" opacity="0.6"/>
    <rect x="36" y="15" width="8" height="5" fill="#F59E0B" opacity="0.5"/>
    <rect x="48" y="8" width="8" height="12" fill="#EF4444" opacity="0.6"/>
  </g>
  
  <!-- Mobile Shopping -->
  <g transform="translate(650, 300)">
    <rect x="-15" y="-25" width="30" height="50" fill="#374151" opacity="0.8" rx="5"/>
    <rect x="-12" y="-22" width="24" height="44" fill="#E5E7EB" opacity="0.9" rx="3"/>
    <circle cx="0" cy="15" r="8" fill="#EC4899" opacity="0.7"/>
  </g>
</svg>
