<svg width="800" height="400" viewBox="0 0 800 400" xmlns="http://www.w3.org/2000/svg">
  <defs>
    <linearGradient id="healthcareGradient" x1="0%" y1="0%" x2="100%" y2="100%">
      <stop offset="0%" style="stop-color:#3B82F6;stop-opacity:1" />
      <stop offset="100%" style="stop-color:#1E40AF;stop-opacity:1" />
    </linearGradient>
    <linearGradient id="pulseGradient" x1="0%" y1="0%" x2="100%" y2="0%">
      <stop offset="0%" style="stop-color:#EF4444;stop-opacity:0.8" />
      <stop offset="50%" style="stop-color:#FCA5A5;stop-opacity:0.6" />
      <stop offset="100%" style="stop-color:#EF4444;stop-opacity:0.8" />
    </linearGradient>
  </defs>
  
  <!-- Background -->
  <rect width="800" height="400" fill="url(#healthcareGradient)" opacity="0.1"/>
  
  <!-- Medical Cross -->
  <g transform="translate(200, 150)">
    <rect x="-30" y="-80" width="60" height="160" fill="#EF4444" rx="8"/>
    <rect x="-80" y="-30" width="160" height="60" fill="#EF4444" rx="8"/>
  </g>
  
  <!-- AI Brain Network -->
  <g transform="translate(600, 200)">
    <circle cx="0" cy="0" r="40" fill="#3B82F6" opacity="0.8"/>
    <circle cx="60" cy="-30" r="25" fill="#1E40AF" opacity="0.6"/>
    <circle cx="80" cy="40" r="20" fill="#60A5FA" opacity="0.7"/>
    <circle cx="-40" cy="50" r="30" fill="#93C5FD" opacity="0.5"/>
    <circle cx="-60" cy="-20" r="35" fill="#DBEAFE" opacity="0.6"/>
    
    <!-- Connection Lines -->
    <line x1="0" y1="0" x2="60" y2="-30" stroke="#3B82F6" stroke-width="2" opacity="0.6"/>
    <line x1="0" y1="0" x2="80" y2="40" stroke="#3B82F6" stroke-width="2" opacity="0.6"/>
    <line x1="0" y1="0" x2="-40" y2="50" stroke="#3B82F6" stroke-width="2" opacity="0.6"/>
    <line x1="0" y1="0" x2="-60" y2="-20" stroke="#3B82F6" stroke-width="2" opacity="0.6"/>
  </g>
  
  <!-- Heartbeat Line -->
  <g transform="translate(100, 300)">
    <path d="M0,50 L20,50 L30,20 L40,80 L50,50 L70,50 L90,50 L110,50 L130,50 L150,50" 
          stroke="url(#pulseGradient)" stroke-width="4" fill="none" opacity="0.8"/>
  </g>
  
  <!-- Data Points -->
  <g transform="translate(500, 100)">
    <circle cx="0" cy="0" r="4" fill="#10B981"/>
    <circle cx="20" cy="15" r="4" fill="#10B981"/>
    <circle cx="40" cy="5" r="4" fill="#10B981"/>
    <circle cx="60" cy="25" r="4" fill="#10B981"/>
    <circle cx="80" cy="10" r="4" fill="#10B981"/>
    <circle cx="100" cy="20" r="4" fill="#10B981"/>
  </g>
  
  <!-- Abstract Medical Symbols -->
  <g transform="translate(150, 80)">
    <circle cx="0" cy="0" r="15" fill="none" stroke="#EF4444" stroke-width="2" opacity="0.7"/>
    <circle cx="0" cy="0" r="8" fill="#EF4444" opacity="0.5"/>
  </g>
  
  <!-- DNA Helix -->
  <g transform="translate(700, 100)">
    <path d="M0,0 Q10,20 0,40 Q-10,60 0,80 Q10,100 0,120" 
          stroke="#8B5CF6" stroke-width="3" fill="none" opacity="0.6"/>
    <path d="M20,10 Q30,30 20,50 Q10,70 20,90 Q30,110 20,130" 
          stroke="#8B5CF6" stroke-width="3" fill="none" opacity="0.6"/>
    <line x1="0" y1="20" x2="20" y2="30" stroke="#8B5CF6" stroke-width="1" opacity="0.4"/>
    <line x1="0" y1="60" x2="20" y2="70" stroke="#8B5CF6" stroke-width="1" opacity="0.4"/>
    <line x1="0" y1="100" x2="20" y2="110" stroke="#8B5CF6" stroke-width="1" opacity="0.4"/>
  </g>
</svg>
