<svg width="800" height="400" viewBox="0 0 800 400" xmlns="http://www.w3.org/2000/svg">
  <defs>
    <linearGradient id="manufacturingGradient" x1="0%" y1="0%" x2="100%" y2="100%">
      <stop offset="0%" style="stop-color:#6B7280;stop-opacity:1" />
      <stop offset="100%" style="stop-color:#374151;stop-opacity:1" />
    </linearGradient>
    <linearGradient id="automationGradient" x1="0%" y1="0%" x2="100%" y2="0%">
      <stop offset="0%" style="stop-color:#3B82F6;stop-opacity:1" />
      <stop offset="100%" style="stop-color:#1E40AF;stop-opacity:1" />
    </linearGradient>
  </defs>
  
  <!-- Background -->
  <rect width="800" height="400" fill="url(#manufacturingGradient)" opacity="0.1"/>
  
  <!-- Factory Building -->
  <g transform="translate(200, 200)">
    <rect x="-50" y="40" width="100" height="120" fill="url(#manufacturingGradient)" opacity="0.8"/>
    <rect x="-45" y="45" width="20" height="20" fill="#9CA3AF"/>
    <rect x="-20" y="45" width="20" height="20" fill="#9CA3AF"/>
    <rect x="5" y="45" width="20" height="20" fill="#9CA3AF"/>
    <rect x="30" y="45" width="20" height="20" fill="#9CA3AF"/>
    
    <rect x="-45" y="70" width="20" height="20" fill="#9CA3AF"/>
    <rect x="-20" y="70" width="20" height="20" fill="#9CA3AF"/>
    <rect x="5" y="70" width="20" height="20" fill="#9CA3AF"/>
    <rect x="30" y="70" width="20" height="20" fill="#9CA3AF"/>
    
    <rect x="-45" y="95" width="20" height="20" fill="#9CA3AF"/>
    <rect x="-20" y="95" width="20" height="20" fill="#9CA3AF"/>
    <rect x="5" y="95" width="20" height="20" fill="#9CA3AF"/>
    <rect x="30" y="95" width="20" height="20" fill="#9CA3AF"/>
    
    <rect x="-45" y="120" width="20" height="20" fill="#9CA3AF"/>
    <rect x="-20" y="120" width="20" height="20" fill="#9CA3AF"/>
    <rect x="5" y="120" width="20" height="20" fill="#9CA3AF"/>
    <rect x="30" y="120" width="20" height="20" fill="#9CA3AF"/>
    
    <rect x="-45" y="145" width="20" height="20" fill="#9CA3AF"/>
    <rect x="-20" y="145" width="20" height="20" fill="#9CA3AF"/>
    <rect x="5" y="145" width="20" height="20" fill="#9CA3AF"/>
    <rect x="30" y="145" width="20" height="20" fill="#9CA3AF"/>
    
    <!-- Chimney -->
    <rect x="35" y="20" width="15" height="50" fill="#374151" opacity="0.9"/>
    <rect x="37" y="15" width="11" height="10" fill="#1F2937" rx="5"/>
    
    <!-- Smoke -->
    <path d="M42,15 Q47,10 52,15 Q57,20 62,15 Q67,10 72,15" 
          stroke="#9CA3AF" stroke-width="2" fill="none" opacity="0.6"/>
    
    <!-- Assembly Line -->
    <rect x="-60" y="160" width="120" height="8" fill="#3B82F6" opacity="0.7"/>
    <rect x="-55" y="155" width="8" height="18" fill="#1E40AF" opacity="0.8"/>
    <rect x="-35" y="155" width="8" height="18" fill="#1E40AF" opacity="0.8"/>
    <rect x="-15" y="155" width="8" height="18" fill="#1E40AF" opacity="0.8"/>
    <rect x="5" y="155" width="8" height="18" fill="#1E40AF" opacity="0.8"/>
    <rect x="25" y="155" width="8" height="18" fill="#1E40AF" opacity="0.8"/>
    <rect x="45" y="155" width="8" height="18" fill="#1E40AF" opacity="0.8"/>
    <rect x="65" y="155" width="8" height="18" fill="#1E40AF" opacity="0.8"/>
  </g>
  
  <!-- AI Optimization Network -->
  <g transform="translate(600, 200)">
    <circle cx="0" cy="0" r="40" fill="#3B82F6" opacity="0.8"/>
    <circle cx="55" cy="-40" r="25" fill="#60A5FA" opacity="0.7"/>
    <circle cx="70" y="20" r="20" fill="#93C5FD" opacity="0.6"/>
    <circle cx="-35" cy="50" r="30" fill="#BFDBFE" opacity="0.5"/>
    <circle cx="-50" cy="-30" r="35" fill="#DBEAFE" opacity="0.6"/>
    
    <!-- Connection Lines -->
    <line x1="0" y1="0" x2="55" y2="-40" stroke="#3B82F6" stroke-width="2" opacity="0.6"/>
    <line x1="0" y1="0" x2="70" y2="20" stroke="#3B82F6" stroke-width="2" opacity="0.6"/>
    <line x1="0" y1="0" x2="-35" y2="50" stroke="#3B82F6" stroke-width="2" opacity="0.6"/>
    <line x1="0" y1="0" x2="-50" y2="-30" stroke="#3B82F6" stroke-width="2" opacity="0.6"/>
  </g>
  
  <!-- Production Chart -->
  <g transform="translate(100, 300)">
    <path d="M0,80 L40,60 L80,70 L120,40 L160,50 L200,30 L240,20 L280,15 L320,10 L360,5" 
          stroke="#3B82F6" stroke-width="3" fill="none" opacity="0.8"/>
    <path d="M0,80 L40,60 L80,70 L120,40 L160,50 L200,30 L240,20 L280,15 L320,10 L360,5" 
          fill="url(#automationGradient)" opacity="0.2"/>
  </g>
  
  <!-- Manufacturing Icons -->
  <g transform="translate(150, 80)">
    <!-- Gear -->
    <circle cx="0" cy="0" r="20" fill="none" stroke="#6B7280" stroke-width="3" opacity="0.8"/>
    <circle cx="0" cy="0" r="8" fill="#6B7280" opacity="0.6"/>
    <rect x="-2" y="-20" width="4" height="8" fill="#6B7280" opacity="0.8"/>
    <rect x="-2" y="12" width="4" height="8" fill="#6B7280" opacity="0.8"/>
    <rect x="-20" y="-2" width="8" height="4" fill="#6B7280" opacity="0.8"/>
    <rect x="12" y="-2" width="8" height="4" fill="#6B7280" opacity="0.8"/>
    <rect x="-14" y="-14" width="6" height="6" fill="#6B7280" opacity="0.8"/>
    <rect x="8" y="-14" width="6" height="6" fill="#6B7280" opacity="0.8"/>
    <rect x="-14" y="8" width="6" height="6" fill="#6B7280" opacity="0.8"/>
    <rect x="8" y="8" width="6" height="6" fill="#6B7280" opacity="0.8"/>
  </g>
  
  <!-- Quality Control -->
  <g transform="translate(500, 100)">
    <circle cx="0" cy="0" r="30" fill="none" stroke="#3B82F6" stroke-width="3" opacity="0.7"/>
    <circle cx="0" cy="0" r="20" fill="none" stroke="#60A5FA" stroke-width="2" opacity="0.6"/>
    <circle cx="0" cy="0" r="10" fill="#93C5FD" opacity="0.5"/>
    <path d="M-15,-15 L15,15 M-15,15 L15,-15" stroke="#3B82F6" stroke-width="2" opacity="0.8"/>
  </g>
  
  <!-- Robot Arm -->
  <g transform="translate(700, 100)">
    <rect x="-20" y="20" width="40" height="8" fill="#6B7280" opacity="0.8"/>
    <rect x="-15" y="15" width="30" height="8" fill="#9CA3AF" opacity="0.7"/>
    <rect x="-10" y="10" width="20" height="8" fill="#D1D5DB" opacity="0.6"/>
    <rect x="-5" y="5" width="10" height="8" fill="#E5E7EB" opacity="0.5"/>
    <rect x="0" y="0" width="5" height="8" fill="#F3F4F6" opacity="0.4"/>
    
    <!-- Joints -->
    <circle cx="-15" cy="19" r="4" fill="#3B82F6" opacity="0.7"/>
    <circle cx="0" cy="19" r="4" fill="#3B82F6" opacity="0.7"/>
    <circle cx="15" cy="19" r="4" fill="#3B82F6" opacity="0.7"/>
  </g>
  
  <!-- Data Analytics -->
  <g transform="translate(400, 80)">
    <rect x="0" y="0" width="8" height="25" fill="#3B82F6" opacity="0.8"/>
    <rect x="12" y="5" width="8" height="20" fill="#60A5FA" opacity="0.7"/>
    <rect x="24" y="10" width="8" height="15" fill="#93C5FD" opacity="0.6"/>
    <rect x="36" y="15" width="8" height="10" fill="#BFDBFE" opacity="0.5"/>
    <rect x="48" y="8" width="8" height="17" fill="#DBEAFE" opacity="0.6"/>
  </g>
</svg>
