<svg width="800" height="400" viewBox="0 0 800 400" xmlns="http://www.w3.org/2000/svg">
  <defs>
    <linearGradient id="governmentGradient" x1="0%" y1="0%" x2="100%" y2="100%">
      <stop offset="0%" style="stop-color:#DC2626;stop-opacity:1" />
      <stop offset="100%" style="stop-color:#B91C1C;stop-opacity:1" />
    </linearGradient>
    <linearGradient id="flagGradient" x1="0%" y1="0%" x2="100%" y2="0%">
      <stop offset="0%" style="stop-color:#1F2937;stop-opacity:1" />
      <stop offset="100%" style="stop-color:#374151;stop-opacity:1" />
    </linearGradient>
  </defs>
  
  <!-- Background -->
  <rect width="800" height="400" fill="url(#governmentGradient)" opacity="0.1"/>
  
  <!-- Government Building -->
  <g transform="translate(200, 200)">
    <rect x="-50" y="40" width="100" height="140" fill="url(#flagGradient)" opacity="0.8"/>
    <rect x="-45" y="45" width="20" height="20" fill="#6B7280"/>
    <rect x="-20" y="45" width="20" height="20" fill="#6B7280"/>
    <rect x="5" y="45" width="20" height="20" fill="#6B7280"/>
    <rect x="30" y="45" width="20" height="20" fill="#6B7280"/>
    
    <rect x="-45" y="70" width="20" height="20" fill="#6B7280"/>
    <rect x="-20" y="70" width="20" height="20" fill="#6B7280"/>
    <rect x="5" y="70" width="20" height="20" fill="#6B7280"/>
    <rect x="30" y="70" width="20" height="20" fill="#6B7280"/>
    
    <rect x="-45" y="95" width="20" height="20" fill="#6B7280"/>
    <rect x="-20" y="95" width="20" height="20" fill="#6B7280"/>
    <rect x="5" y="95" width="20" height="20" fill="#6B7280"/>
    <rect x="30" y="95" width="20" height="20" fill="#6B7280"/>
    
    <rect x="-45" y="120" width="20" height="20" fill="#6B7280"/>
    <rect x="-20" y="120" width="20" height="20" fill="#6B7280"/>
    <rect x="5" y="120" width="20" height="20" fill="#6B7280"/>
    <rect x="30" y="120" width="20" height="20" fill="#6B7280"/>
    
    <rect x="-45" y="145" width="20" height="20" fill="#6B7280"/>
    <rect x="-20" y="145" width="20" height="20" fill="#6B7280"/>
    <rect x="5" y="145" width="20" height="20" fill="#6B7280"/>
    <rect x="30" y="145" width="20" height="20" fill="#6B7280"/>
    
    <rect x="-55" y="35" width="110" height="10" fill="#374151" rx="5"/>
    <rect x="-60" y="30" width="120" height="10" fill="#1F2937" rx="5"/>
    
    <!-- Flag -->
    <rect x="40" y="20" width="30" height="20" fill="#DC2626" opacity="0.9"/>
    <rect x="40" y="20" width="5" height="20" fill="#1F2937"/>
    <circle cx="52" cy="30" r="3" fill="#FFFFFF"/>
  </g>
  
  <!-- AI Governance Network -->
  <g transform="translate(600, 200)">
    <circle cx="0" cy="0" r="40" fill="#DC2626" opacity="0.8"/>
    <circle cx="55" cy="-40" r="25" fill="#EF4444" opacity="0.7"/>
    <circle cx="70" cy="20" r="20" fill="#F87171" opacity="0.6"/>
    <circle cx="-35" cy="50" r="30" fill="#FCA5A5" opacity="0.5"/>
    <circle cx="-50" cy="-30" r="35" fill="#FECACA" opacity="0.6"/>
    
    <!-- Connection Lines -->
    <line x1="0" y1="0" x2="55" y2="-40" stroke="#DC2626" stroke-width="2" opacity="0.6"/>
    <line x1="0" y1="0" x2="70" y2="20" stroke="#DC2626" stroke-width="2" opacity="0.6"/>
    <line x1="0" y1="0" x2="-35" y2="50" stroke="#DC2626" stroke-width="2" opacity="0.6"/>
    <line x1="0" y1="0" x2="-50" y2="-30" stroke="#DC2626" stroke-width="2" opacity="0.6"/>
  </g>
  
  <!-- Compliance Framework -->
  <g transform="translate(100, 300)">
    <rect x="0" y="0" width="60" height="80" fill="none" stroke="#DC2626" stroke-width="2" opacity="0.7"/>
    <rect x="10" y="10" width="40" height="15" fill="#EF4444" opacity="0.3"/>
    <rect x="10" y="30" width="40" height="15" fill="#F87171" opacity="0.3"/>
    <rect x="10" y="50" width="40" height="15" fill="#FCA5A5" opacity="0.3"/>
    <rect x="10" y="70" width="40" height="15" fill="#FECACA" opacity="0.3"/>
    
    <rect x="80" y="0" width="60" height="80" fill="none" stroke="#DC2626" stroke-width="2" opacity="0.7"/>
    <rect x="90" y="10" width="40" height="15" fill="#EF4444" opacity="0.3"/>
    <rect x="90" y="30" width="40" height="15" fill="#F87171" opacity="0.3"/>
    <rect x="90" y="50" width="40" height="15" fill="#FCA5A5" opacity="0.3"/>
    <rect x="90" y="70" width="40" height="15" fill="#FECACA" opacity="0.3"/>
    
    <rect x="160" y="0" width="60" height="80" fill="none" stroke="#DC2626" stroke-width="2" opacity="0.7"/>
    <rect x="170" y="10" width="40" height="15" fill="#EF4444" opacity="0.3"/>
    <rect x="170" y="30" width="40" height="15" fill="#F87171" opacity="0.3"/>
    <rect x="170" y="50" width="40" height="15" fill="#FCA5A5" opacity="0.3"/>
    <rect x="170" y="70" width="40" height="15" fill="#FECACA" opacity="0.3"/>
  </g>
  
  <!-- Public Service Icons -->
  <g transform="translate(150, 80)">
    <!-- Scales of Justice -->
    <rect x="-25" y="20" width="50" height="8" fill="#6B7280" opacity="0.8"/>
    <circle cx="-15" cy="15" r="8" fill="#DC2626" opacity="0.7"/>
    <circle cx="15" cy="15" r="8" fill="#DC2626" opacity="0.7"/>
    <line x1="-15" y1="15" x2="15" y2="15" stroke="#6B7280" stroke-width="2" opacity="0.6"/>
  </g>
  
  <!-- Policy Document -->
  <g transform="translate(500, 100)">
    <rect x="-30" y="-25" width="60" height="50" fill="#F3F4F6" opacity="0.9" rx="5"/>
    <rect x="-25" y="-20" width="50" height="8" fill="#DC2626" opacity="0.7"/>
    <rect x="-25" y="-10" width="40" height="4" fill="#6B7280" opacity="0.6"/>
    <rect x="-25" y="-5" width="45" height="4" fill="#6B7280" opacity="0.6"/>
    <rect x="-25" y="0" width="35" height="4" fill="#6B7280" opacity="0.6"/>
    <rect x="-25" y="5" width="50" height="4" fill="#6B7280" opacity="0.6"/>
    <rect x="-25" y="10" width="30" height="4" fill="#6B7280" opacity="0.6"/>
    <rect x="-25" y="15" width="45" height="4" fill="#6B7280" opacity="0.6"/>
    <rect x="-25" y="20" width="40" height="4" fill="#6B7280" opacity="0.6"/>
    <rect x="-25" y="25" width="35" height="4" fill="#6B7280" opacity="0.6"/>
  </g>
  
  <!-- Security Shield -->
  <g transform="translate(700, 100)">
    <path d="M0,-40 L20,-20 L20,20 L0,40 L-20,20 L-20,-20 Z" 
          fill="#DC2626" opacity="0.7"/>
    <path d="M0,-30 L15,-15 L15,15 L0,30 L-15,15 L-15,-15 Z" 
          fill="#EF4444" opacity="0.8"/>
    <path d="M0,-20 L10,-10 L10,10 L0,20 L-10,10 L-10,-10 Z" 
          fill="#F87171" opacity="0.9"/>
    <circle cx="0" cy="0" r="5" fill="#FFFFFF"/>
  </g>
  
  <!-- Data Points -->
  <g transform="translate(400, 80)">
    <circle cx="0" cy="0" r="4" fill="#DC2626"/>
    <circle cx="20" cy="15" r="4" fill="#EF4444"/>
    <circle cx="40" cy="5" r="4" fill="#F87171"/>
    <circle cx="60" cy="25" r="4" fill="#FCA5A5"/>
    <circle cx="80" cy="10" r="4" fill="#FECACA"/>
    <circle cx="100" cy="20" r="4" fill="#FEE2E2"/>
  </g>
</svg>
